<svg xmlns="http://www.w3.org/2000/svg" viewBox="0 0 100 100" x="0px" y="0px"><g data-name="Layer 2"><path d="M87,36.44H71.09V19s0-.05,0-.07a.8.8,0,0,0,0-.26l0-.09a.84.84,0,0,0-.2-.29L59.87,7.32a1.08,1.08,0,0,0-.29-.2l-.1,0A1.1,1.1,0,0,0,59.22,7H29.91a1,1,0,0,0-1,1V30.44H13A5.47,5.47,0,0,0,7.53,35.9V77.55A5.47,5.47,0,0,0,13,83H28.91v9a1,1,0,0,0,1,1H70.09a1,1,0,0,0,1-1V83H87a5.47,5.47,0,0,0,5.46-5.47V41.9A5.47,5.47,0,0,0,87,36.44Zm3.46,41.11A3.47,3.47,0,0,1,87,81H77.79l-1.89-9.7a1,1,0,0,0-1-.8H25.08a1,1,0,0,0-1,.8L22.21,81H13a3.47,3.47,0,0,1-3.46-3.47V35.9A3.46,3.46,0,0,1,13,32.44H36.52l4.95,5.66a1,1,0,0,0,.75.34H87a3.46,3.46,0,0,1,3.46,3.46Zm-19.38,3.2V72.52h3l1.61,8.23Zm-46.79,0,1.61-8.23h3v8.23ZM30.91,82v-9.5H69.09V91H30.91ZM67.68,18H60.16V10.44ZM58.16,9V19a1,1,0,0,0,1,1h9.93V36.44H42.68l-5-5.66a1,1,0,0,0-.76-.34H30.91V9Z"/><path d="M77.54,43H23.36a3.35,3.35,0,0,0-3.31,3.8L21,53.58a6.48,6.48,0,0,0,6.25,5.69h46.4a6.48,6.48,0,0,0,6.25-5.69l.95-6.76a3.37,3.37,0,0,0-.79-2.65A3.33,3.33,0,0,0,77.54,43Zm1.33,3.53-1,6.75a4.42,4.42,0,0,1-4.27,4H27.25a4.41,4.41,0,0,1-4.27-4L22,46.55A1.35,1.35,0,0,1,23.36,45H77.54a1.35,1.35,0,0,1,1.33,1.53Z"/><path d="M49.76,47.54H27.85a1,1,0,0,0-1,1v5.21a1,1,0,0,0,1,1H49.76a1,1,0,0,0,1-1V48.54A1,1,0,0,0,49.76,47.54Zm-1,5.21H28.85V49.54H48.76Z"/><path d="M61.84,79.12a1,1,0,0,0,0-2H37.68a1,1,0,0,0,0,2Z"/><path d="M61.84,84.37H37.68a1,1,0,0,0,0,2H61.84a1,1,0,0,0,0-2Z"/></g></svg>