<svg id="Layer_1" data-name="Layer 1" xmlns="http://www.w3.org/2000/svg" viewBox="0 0 678.77 73.95"><title>PANTUM logo - Brandlogos.net</title><path d="M472.67,347.07h-88a10.29,10.29,0,0,0-10.49,10v7.1h44.34v56.65h19.62V364.14h45v-7.32a10.28,10.28,0,0,0-10.44-9.75" transform="translate(-44.61 -347.03)" style="fill:#5f6062"/><path d="M608,393.89h0v26.87h19.6V374.83H608Zm115.39-36.76a10.27,10.27,0,0,0-10.47-10.07H700a10.63,10.63,0,0,0-8.88,4.75l-25.4,44L640.42,352a10.61,10.61,0,0,0-9-5H618.45a10.32,10.32,0,0,0-10.48,10v6.23h18.81l4.31,7.41v.05L657,415.5v0a9.63,9.63,0,0,0,17.39,0l0,0,25.88-44.73v-.05l3.5-6v56.07h19.61V357.34c0-.08,0-.14,0-.2" transform="translate(-44.61 -347.03)" style="fill:#5f6062"/><path d="M344.54,418.85a10.67,10.67,0,0,0,6.15,1.92s0,0,.08,0h4.61a.07.07,0,0,0,.06,0,10.25,10.25,0,0,0,10.48-10,.51.51,0,0,0,0-.14V347.07H346.28v50.39L279.1,349.07l0,0a10.85,10.85,0,0,0-6.25-2h-5.19a10.28,10.28,0,0,0-10.49,10.07v8.44h0v55.21H276.8v-51Z" transform="translate(-44.61 -347.03)" style="fill:#5f6062"/><path d="M210.77,351.89a10.54,10.54,0,0,0-8.91-4.81H191.62a10.51,10.51,0,0,0-9,4.86h0l-6.85,11.39h23.57L205.72,375H168.8l-27.56,45.82h21.33l15.68-28.57h36.92l15.69,28.57h21.34Z" transform="translate(-44.61 -347.03)" style="fill:#5f6062"/><path d="M580.67,347h19.62v55.29c0,10.18-8.62,18.44-19.22,18.44H510.59c-10.62,0-19.24-8.27-19.24-18.44V347H511v51.23a5.58,5.58,0,0,0,5.7,5.44H575a5.6,5.6,0,0,0,5.69-5.44Z" transform="translate(-44.61 -347.03)" style="fill:#5f6062"/><path d="M146.85,351.46c-4.22-2.87-9.43-4.27-15.53-4.27h-.45l-63.63-.11H44.61v16.25h90V375h-90v23.44l0,22.38H64.27l0-23.79v-5.81h66.53c7.28,0,12.84-1.11,16.77-3.58s6-6.85,6-12.49v-.05h0V365c0-5.81-2.23-10.49-6.66-13.53" transform="translate(-44.61 -347.03)" style="fill:#5f6062"/><path d="M472.68,347.07h-88a10.28,10.28,0,0,0-10.48,10v7.1h44.34v56.65h19.62V364.14h45v-7.32a10.3,10.3,0,0,0-10.46-9.75" transform="translate(-44.61 -347.03)" style="fill:#5f6062"/><path d="M608,393.89h0v26.87h19.61V374.83H608Zm115.4-36.76a10.29,10.29,0,0,0-10.47-10.07H700a10.52,10.52,0,0,0-8.87,4.75l-25.42,44L640.41,352a10.55,10.55,0,0,0-9-5H618.46a10.3,10.3,0,0,0-10.48,10v6.23h18.81l4.3,7.41v.05L657,415.5v0a9.65,9.65,0,0,0,17.41,0v0l25.88-44.73v-.05l3.52-6v56.07h19.6V357.34c0-.08,0-.14,0-.2" transform="translate(-44.61 -347.03)" style="fill:#5f6062"/><path d="M344.54,418.85a10.67,10.67,0,0,0,6.15,1.92s0,0,.08,0h4.61l.06,0a10.24,10.24,0,0,0,10.48-10,.49.49,0,0,0,0-.13V347.07H346.28v50.39l-67.2-48.39s0,0,0,0a10.72,10.72,0,0,0-6.23-2h-5.21a10.28,10.28,0,0,0-10.47,10.07v8.44h0v55.21H276.8v-51Z" transform="translate(-44.61 -347.03)" style="fill:#5f6062"/><path d="M210.77,351.89a10.5,10.5,0,0,0-8.91-4.81H191.59a10.56,10.56,0,0,0-9,4.86l-6.87,11.39h23.58L205.72,375H168.78l-27.54,45.82h21.32l15.68-28.57h36.94l15.69,28.57h21.34Z" transform="translate(-44.61 -347.03)" style="fill:#5f6062"/><path d="M580.67,347h19.62v55.29c0,10.18-8.61,18.44-19.22,18.44H510.59c-10.62,0-19.23-8.27-19.23-18.44V347H511v51.23a5.57,5.57,0,0,0,5.69,5.44H575a5.58,5.58,0,0,0,5.69-5.44Z" transform="translate(-44.61 -347.03)" style="fill:#5f6062"/></svg>